<?xml version="1.0" encoding="UTF-8"?>
<svg width="752pt" height="752pt" version="1.1" viewBox="0 0 752 752" xmlns="http://www.w3.org/2000/svg">
 <path d="m312.73 589.11h135.8c13.559 0 24.59-11.035 24.59-24.594v-69.293c16.895-20.289 33.227-55.551 33.301-86.992 0-0.070313 0.019531-0.13672 0.019531-0.20703v-155.93c0-9.1406-3.5625-17.715-9.9961-24.121-6.4219-6.4492-14.992-10.004-24.129-10.004-5.457 0-10.598 1.3203-15.18 3.6094v-11.75c0-18.816-15.305-34.121-34.141-34.121-7.0039 0-13.516 2.125-18.938 5.7578-1.6055-3.125-3.6836-6.0352-6.2461-8.6016-6.4609-6.4297-15.023-9.9727-24.121-9.9727-16.641 0-30.516 11.98-33.504 27.762-4.8203-2.5273-10.207-3.8789-15.793-3.8789-18.816 0-34.125 15.316-34.125 34.141v69.504c-3.2305-0.96094-6.5859-1.5117-10.035-1.5117h-13.121c-11.883 0-21.551 9.6719-21.551 21.551v12.598c0 0.0625 0.019532 0.125 0.019532 0.18359v80.59c0 32.176 22.414 70.031 42.566 93.977v66.707c-0.007813 13.566 11.02 24.602 24.582 24.602zm-48.215-185.28v-80.777c0-0.0625-0.019531-0.125-0.019531-0.18359v-12.406c0-1.4414 1.168-2.6094 2.6094-2.6094h13.121c3.4648 0 6.7734 1.0781 9.5664 3.1211 0.14844 0.10938 0.31641 0.14063 0.46875 0.24219v65.633c0 5.2266 4.2422 9.4727 9.4727 9.4727 5.2266 0 9.4727-4.2422 9.4727-9.4727v-155.93c0-8.3828 6.8086-15.195 15.184-15.195 4.0508 0 7.8633 1.582 10.727 4.4414 2.8711 2.8828 4.4531 6.707 4.4531 10.754v102.36c0 5.2266 4.2422 9.4727 9.4727 9.4727 5.2266 0 9.4727-4.2422 9.4727-9.4727l-0.003906-102.36v-23.902c0-8.3711 6.8086-15.184 15.184-15.184 4.0508 0 7.8672 1.582 10.727 4.4297 2.8711 2.8828 4.4531 6.707 4.4531 10.754v12.816c0 0.68359 0.082032 1.3398 0.21484 1.9805v111.46c0 5.2266 4.2422 9.4727 9.4727 9.4727 5.2266 0 9.4727-4.2422 9.4727-9.4727l-0.003906-115.57c1.0469-7.3555 7.3281-13.051 14.984-13.051 8.3711 0 15.184 6.8086 15.184 15.18v121.31c0 5.2266 4.2422 9.4727 9.4727 9.4727 5.2266 0 9.4727-4.2422 9.4727-9.4727l-0.003907-79.051c0-8.3711 6.8086-15.184 15.18-15.184 4.0586 0 7.8633 1.5742 10.734 4.457 2.8633 2.8555 4.4453 6.6641 4.4453 10.727v151.6c0 0.046875-0.015625 0.089844-0.015625 0.13672v4.1758c0 24.305-13.051 57.176-30.422 76.824l-24.234 0.003906c-5.2266 0-9.4727 4.2422-9.4727 9.4727 0 5.2266 4.2422 9.4727 9.4727 9.4727h21.348v60.742c0 3.1172-2.5352 5.6484-5.6445 5.6484l-135.8-0.003907c-3.1172 0-5.6445-2.5352-5.6445-5.6484v-60.738h94.371c5.2266 0 9.4727-4.2422 9.4727-9.4727 0-5.2266-4.2422-9.4727-9.4727-9.4727h-99.453c-19.086-22.887-37.488-55.828-37.488-81z" fill="#0d0d0f"/>
</svg>
