<?xml version="1.0" encoding="UTF-8"?>
<svg width="752pt" height="752pt" version="1.1" viewBox="0 0 752 752" xmlns="http://www.w3.org/2000/svg">
 <path d="m530.82 331.17c-0.89062-7.2969-1.8945-10.793-9.6797-21.383-5.6055-7.6289-10.609-11.133-14.859-12.891 2.2109-12.316-1.3125-26.508-9.3125-36.098-5.043-6.0469-11.938-11.016-20.508-14.762-2.0156-0.88281-8.7266-3.125-14.852-3.8789-0.92188-11.531-9.3203-22.699-16.531-28.535-11.484-9.2852-26.285-13.789-39.562-12.105-0.30469 0.039063-0.64453 0.10547-0.96094 0.15234-2.1016-9.793-5.7891-19.781-14.48-27.211-13.555-11.59-33.004-10.57-46.691-5.7578-24.5 8.6094-48.594 22.141-59.617 61.621-1.4023 1.1172-2.7891 2.2305-4.1562 3.3281-2.9844 2.3945-5.8945 4.7422-8.7383 6.918-3.3906 2.6016-7.0859 5.168-10.859 7.7969-17.641 12.273-39.602 27.555-39.477 53.719 0.10547 23.117 10.496 46.918 20.539 69.938 6.3281 14.492 12.305 28.184 15.512 41.051 12.43 49.859 10.508 116.47 2.3867 153.82-1.1758 5.4102 0.15234 10.992 3.6406 15.32 3.5234 4.3867 8.7734 6.8984 14.395 6.8984h161.76c5.2227 0 10.219-2.2266 13.711-6.1016 3.4844-3.8789 5.1719-9.0781 4.6172-14.273-2.4531-23.117-3.2109-55.809 0.64062-75.344 9.1562-4.7461 13.738-11.594 25.117-28.836 12.887-19.52 22.777-44.43 29.32-60.918 2.5664-6.4688 4.7891-12.051 6.1406-14.609 0.60547-1.1445 1.2656-2.3242 1.9336-3.5391 4.3086-7.8008 9.5078-17.355 8.8008-27.379 3.3398-9.3984 2.4102-21.68 1.7695-26.941zm-21.129-12.973c6.2734 8.5352 6.4297 9.8359 7.0195 14.68 0.96094 7.918 0.61719 15.348-0.82813 19.895-0.47656 0.72266-0.83984 1.5312-1.0273 2.3867-5.5742 9.8516-39.387 32.418-47.418 34.836-0.49609 0.14844-1.0859 0.34766-1.7422 0.56641-2.4062 0.80859-5.7031 1.918-9.1797 1.918-3.2812 0-8.1914-0.83203-12.965-8.0508-0.13281-0.19922-0.51562-0.71094-1.1562-1.4219-6.2188-6.9062-5.8477-10.199-5.5938-11.047 0.22266-0.73438 1.207-1.4258 4.4648-3.4297 1.3594-0.83203 2.875-1.7656 4.5547-2.8984 6.7773-4.5547 12.273-10.477 22.297-21.59 5.3086-5.5 10.551-11.062 15.633-16.719 1.3555-1.5117 3.3633-3.4258 5.4883-5.4453 3.9062-3.7266 8.1367-7.7617 11.348-12 2.043 0.78125 4.9844 2.7109 9.1055 8.3203zm-23.629-48.301c6.0469 7.2539 8.3438 18.867 5.4492 27.613-0.042969 0.13281-0.13672 0.28516-0.1875 0.42188-3.0039 2.2148-6.1367 5.7344-10.465 10.656l-2.1406 2.4297c-8.1641 9.2461-11.684 13.105-14.902 16.637l-4.2539 4.6875c-0.63281 0.70703-1.1953 1.3242-1.793 1.9883-3.5312 3.6523-7.0742 7.2969-10.668 10.84-11.559 11.395-21.109 14.938-31.523 11.633-7.7383-2.4492-16.387-10.395-16.926-18.324-0.085938-1.2031 0.66797-2.2148 3.2852-5.0703l0.48828-0.53516c2.9492-3.2344 6.1914-6.1484 9.8125-9.3477 5.7109-5.0469 11.086-10.504 15.984-16.215 5.6016-6.5352 10.668-13.512 15.066-20.738 3.7617-6.1836 7.6445-12.816 10.195-19.863 0.91016-2.5117 3.3516-7.418 4.9883-10.59 4.0117 0.17969 10.703 2.2461 12.312 2.9492 6.5117 2.8398 11.652 6.4883 15.277 10.828zm-93.918 53.172c-6.4922 4.3867-15.605 2.8281-22.004-0.10937-2.0117-0.92188-3.7656-1.9648-5.3516-3.1172 3.9414 0.5625 7.7891 0.90625 11.793 1.2266 2.0703 0.17188 4.207 0.33984 6.4609 0.55859 3.582 0.33984 6.9961 0.35156 10.324 0.20703-0.40234 0.41797-0.82813 0.80078-1.2227 1.2344zm44.008-98.398c6.6172 5.3516 13.875 16.617 10.395 23.551-1.3359 2.5469-4.9688 9.6055-6.4297 13.641-1.6445 4.543-4.1289 9.1445-6.7539 13.602-3.9102-9.8125-12.762-15.055-19.668-19.125l-1.9844-1.1758c-7.0781-4.2188-13.738-9.0781-20.008-14.426 2.2539-7.2539 5.4219-14.332 9.5625-21.047 0.52734-0.85547 1.5078-2.4492 2.3281-3.0352 0.96094-0.6875 3.0586-0.95703 3.7422-1.0469 9.3789-1.1953 20.414 2.2734 28.816 9.0625zm-88.055-42.559c9.9531-3.5 23.777-4.5039 32.75 3.1523 6.707 5.7305 9.0586 14.32 10.645 23.59-0.89063 1.1367-1.6523 2.293-2.3203 3.3828-3.5195 5.707-6.4023 11.656-8.75 17.75-1.1641-1.2266-2.3828-2.3906-3.5078-3.6602l-2.2695-2.5781c-8.7422-9.9688-16.996-19.387-34.445-19.559h-0.46875c-2.4297 0-4.8086 0.20312-7.1562 0.51953 0.007812-2.1602-0.94141-4.3047-2.8086-5.7109-3.1367-2.3711-7.6016-1.7227-9.9648 1.4023-2.957 3.9102-4.3555 5.9336-5.0703 9.5625-3.293 1.4883-6.4883 3.2109-9.6172 5.0859 11.121-20.016 27.668-27.559 42.984-32.938zm122.9 274.62c-11.977 18.148-14.582 21.605-20.508 24.445-13.758 6.6055-22.523 5.5156-33.883 1.2031-3.6758-1.3867-7.7695 0.45312-9.1641 4.1211-1.3906 3.6641 0.44922 7.7695 4.1211 9.1641 6.9844 2.6523 13.734 4.4141 21.012 4.4141 3.168 0 6.4688-0.40625 9.9023-1.1445-2.9922 23.562-1.2852 54.637 0.48828 71.301 0.17578 1.6328-0.58594 2.75-1.0508 3.2734-0.46875 0.51172-1.5 1.3906-3.1445 1.3906h-161.76c-1.3008 0-2.5195-0.58203-3.3398-1.6016-0.46094-0.56641-1.1758-1.7617-0.82031-3.3867 8.6758-39.902 10.609-107.77-2.4805-160.28-3.4961-14.027-9.9922-28.906-16.277-43.301-9.4727-21.699-19.262-44.133-19.355-64.316-0.085937-18.703 16.93-30.543 33.387-41.992 3.8281-2.668 7.7852-5.418 11.391-8.1797 2.9258-2.2461 5.9258-4.6562 8.9961-7.1211 15.359-12.348 32.758-26.336 51.227-26.336h0.32031c11.082 0.10547 15.902 5.6055 23.887 14.715l2.3359 2.6484c11.086 12.484 23.922 23.121 38.141 31.602l2.0547 1.2188c8.9648 5.2812 14.469 8.9414 14.691 17.312 0.10547 3.8984-1.2422 7.8281-3.7891 11.066-8.2656 10.52-22.496 11.527-32.98 10.523-2.3242-0.22266-4.5352-0.40234-6.6836-0.57812-12.371-0.99609-21.516-1.8086-37.641-10.547-3.0742-6.6914-1.1992-11.633-1.1094-11.859 1.4805-3.6211-0.23047-7.7812-3.8516-9.2773-3.6172-1.5-7.7578 0.19531-9.2617 3.8086-0.72266 1.7383-3.5625 9.8594 0.089844 20.25-9.6289 7.2461-13.273 9.2773-29.977 9.7617-3.9219 0.11328-7.0078 3.3867-6.8945 7.3086 0.11328 3.9219 3.3711 7.0078 7.3086 6.8945 20.824-0.60156 27.07-4.3047 38.973-13.266 2.1602 1.1289 4.2148 2.1211 6.1953 3.0117 4.5508 8.7656 10.684 17.367 22.656 22.871 4.4648 2.0547 8.9961 3.3359 13.422 3.8711 0.25391 0.46875 0.54297 1.0078 0.91797 1.6758 15.18 27.602 21.281 48.328 18.148 61.609-5.4727 23.195-16.578 38.258-20.039 41.699-2.7812 2.7695-2.7891 7.2695-0.019532 10.051 1.3867 1.3906 3.2109 2.0898 5.0352 2.0898 1.8125 0 3.6289-0.69141 5.0156-2.0703 5.6055-5.582 17.801-22.906 23.84-48.504 2.7578-11.68 0.14062-25.375-4.0742-37.887 1.6133 0.77734 3.2383 1.4336 4.8398 1.9414 3.7422 1.1836 7.5234 1.7773 11.254 1.8047-0.26562 6.2852 2.8008 13.098 9.4141 20.508 6.2148 9.1914 14.699 14.047 24.566 14.047 5.8047 0 10.754-1.668 13.715-2.6602l1.3008-0.42578c5.75-1.7344 20.605-10.434 33.766-20.27-1.6445 3.3008-3.6328 8.2773-6.3281 15.066-6.332 15.941-15.895 40.031-27.977 58.332z" fill="#8d8080"/>
</svg>
