<?xml version="1.0" encoding="UTF-8"?>
<svg width="752pt" height="752pt" version="1.1" viewBox="0 0 752 752" xmlns="http://www.w3.org/2000/svg">
 <g fill="#8d8080">
  <path d="m418.25 588.38h-105.48c-1.9883-0.050781-11.203-0.58594-16.164-6.4375-4.6367-5.4805-5.0117-17.523-5.0312-17.645-2.0078-13.473-58.836-116.48-23.824-207.63 1.4062-3.6641 5.4453-5.5547 9.1289-4.1953 3.6797 1.3633 5.4492 5.4102 4.1992 9.125-29.395 87.414 24.457 193.77 24.695 202.3 0.097656 3.5039 1.1836 8.0039 1.8438 9.082 0.51562 0.42969 3.5312 1.1406 5.3438 1.1875h104.37c1.0625-0.375 4.207-1.7539 6.8672-5.6875 1.832-2.6992 1.9453-8.7891 2.0547-14.676 0.15625-8.6289 0.33594-18.402 5.1797-26.887 0.39453-0.68359 46.793-66.039 48.836-72.672-3.6719-12.684-37.664-94.602-44.219-108.2-0.53125-0.039062-1.2422-0.046875-1.8906 0.058594-28.574 4.7266-63.449 11.617-77.887 14.516 4.7969 31.539 51.465 23.039 51.574 23.02 3.0938-0.58594 6.1992 0.9375 7.6289 3.7383l15.52 30.195c0.77734 1.1523 1.2266 2.5352 1.207 4.0078-0.039063 3.7031-3.1875 6.7773-6.8828 7.0312-7.2031 0.49609-31.445 5.0234-40.957 42.281-0.97266 3.8047-4.8594 6.1016-8.6367 5.125-3.8047-0.97266-6.0938-4.8359-5.125-8.6367 9.0391-35.41 30.516-47.16 43.777-51.059l-9.2148-17.938c-4.7422 0.56641-11.957 1.1094-18.805 0.35938l-1.7891-0.13281c-10.539-0.75-38.512-2.7422-43.512-42.703-0.46484-3.6797 1.9883-7.0977 5.6211-7.8438 0.47656-0.097656 48.059-9.8516 85.164-15.984 3.9023-0.64844 9.5-0.28516 13.488 2.6758 1.7344 1.2891 49.711 118.5 49.188 121.09-2.1719 10.742-50.594 77.93-50.953 78.453-2.8281 4.9727-2.9648 12.484-3.0977 19.742-0.14062 7.9609-0.29688 16.191-4.4961 22.387-6.5977 9.7383-15.43 11.621-16.414 11.801-0.4375 0.10156-0.875 0.14062-1.3086 0.14062z"/>
  <path d="m293.05 437.89-25.492-78.902c-0.10938-0.34766-0.19531-0.69922-0.25391-1.0625-2.7031-16.898 5.0039-30.461 20.398-34.383 12.527-3.1914 29.07 9.1133 33.727 24.512l24.93 78.695c4.3945 15.461-6.3789 26.789-14.336 29.996-17.984 7.2617-34.68-5.5742-38.973-18.855zm-11.797-82.727 25.312 78.355c2.3672 7.3281 9.1445 14.086 19.781 10.199 3.082-1.1289 8.5234-5.4219 6.4023-12.887l-24.891-78.578c-3.0938-10.23-9.9102-16.828-16.301-15.039-10.164 2.8672-11.27 11.23-10.305 17.949z"/>
  <path d="m337.02 435.43c-4.8828-8.1836-9.2617-20.426-9.4492-20.941-5.4141-15.699-23.457-74.625-24.223-77.133-0.09375-0.3125-0.16406-0.63281-0.22266-0.95703-2.9727-18.582 4.7695-32.203 22.164-37.129 17.559-4.9688 33.047 15.051 36.332 25.754l7.3867 23.957c1.1562 3.75-0.94531 7.7227-4.6914 8.8789-3.7773 1.1641-7.7305-0.95703-8.8828-4.6992l-7.3945-23.969c-2.1367-6.9727-9.1367-18.324-18.539-16.363-10.488 2.1875-14.078 9.6133-12.414 20.844 1.7812 5.8164 18.844 61.441 23.898 76.105 0.019531 0.046875 4.0781 11.387 8.2422 18.355 1.3867 2.3281 9.6094 4.5781 17.73 1.1602 8.5195-3.5898 9.9375-7.6875 6.5625-17.684-1.1406-3.3867-6.0703-19.504-6.0703-19.504l13.586-4.1523c0 0.003906 4.832 15.793 5.9492 19.113 2.1016 6.2383 8.9922 26.43-14.309 35.23-18.781 7.1055-31.648-0.16016-35.656-6.8672z"/>
  <path d="m460.53 392.18c-3.5977 0-6.6875-2.7266-7.0547-6.3867-0.15234-1.5156-3.7539-37.344-2.082-54.031 0.44141-4.3867 22.82-102.72 29.676-132.76 0.77344-3.9531 1.1523-12.43-10.711-14.422-10.125-1.6953-15.289 13.676-19.621 29.609l-33.074 118.22c-0.66406 2.3594-2.4844 4.2109-4.8359 4.9023 0 0-11.047 2.4609-12.707 1.5586-1.6562-0.90625-2.8789-2.4336-3.4102-4.2461-16.266-55.992-40.969-140.77-42.371-144.84-1.4492-4.2227-5.9336-13.805-16.207-11.633-12.266 2.6016-13.223 11.828-11.867 19.113 1.0391 5.293 25.383 91.188 41.504 147.63 1.0781 3.7695-1.1094 7.6992-4.8789 8.7812-3.7695 1.0625-7.707-1.1094-8.7812-4.8828-4.1445-14.504-40.504-141.93-41.809-148.93-3.3477-17.977 5.6367-31.957 22.883-35.613 14.41-3.0508 27.188 5.1523 32.598 20.914 1.6641 4.8398 29.059 98.988 39.031 133.3l30.219-108c4.1758-15.359 11.957-43.957 35.711-39.891 8.4062 1.4297 14.914 5.168 18.812 10.809 3.793 5.5 4.9766 12.605 3.4141 20.562-11.48 50.352-28.746 126.66-29.457 131.39-1.5 15.098 2.0703 50.652 2.1016 51.008 0.39844 3.9023-2.4492 7.3867-6.3516 7.7852-0.25 0.03125-0.48828 0.046875-0.73047 0.046875z"/>
 </g>
</svg>
